Patient4_TMGait_0pt6_01_right_33_EMG.mot
version=1
nRows=33
nColumns=33
inDegrees=no
endheader
time	1LAddLong	2LGlutMax	3LGlutMed	4LIliopsoas	5LSemiMemb	6LBicFemLong	7LRecFem	8LVastMed	9LVastLat	10LGasMed	11LTibAnt	12lTibPost	13LPeroneusLong	14LSol	15LExtDigLong	16LFlexDigLong	17RAddLong	18RGlutMax	19RGlutMed	20RIliopsoas	21RSemiMemb	22RBicFemLong	23RRecFem	24RVastMed	25RVastLat	26RGasMed	27RTibAnt	28RTibPost	29RPeroneusLong	30RSol	31RExtDigLong	32RFlexDigLong
39.995	-0.019836	-0.62683	0.092468	0.016022	0.003662	0.000458	0.36087	0.010834	0.050812	0.070496	0.25482	0.000763	-0.14465	-0.16357	-0.23682	-0.002899	0.054474	-0.20416	-0.50842	0.003815	-0.26047	0.29312	0.30518	0.11215	0.13489	-0.008698	-0.072327	-0.012512	0.16251	-0.078278	-0.001526	-0.022278
39.996	-0.018311	-0.57678	0.12329	0.018311	0.017853	0.003357	0.24399	0.019073	0.043182	0.079041	0.17288	0.009308	-0.16617	-0.089722	0.16266	-0.011902	0.007019	-0.19684	-0.82779	-0.1152	-0.23254	0.12619	0.30792	-0.033417	-0.045471	-0.008087	-0.10941	-0.009155	0.13428	-0.088501	-0.000153	-0.026703
39.997	-0.017548	-0.58701	0.12436	0.000916	0.000916	0.006714	0.1506	0.016327	0.043182	0.077057	0.08728	0.000763	-0.10834	-0.071411	0.13931	-0.021057	-0.0177	-0.12543	-0.26566	-0.1445	0.1796	0.22736	0.34653	-0.15259	-0.18692	-0.001831	-0.8197	-0.011902	0.2742	0.10452	0.000763	-0.016632
39.998	-0.017395	-0.62408	0.15686	0.024567	0.001678	0.025482	0.10056	0.015411	0.068817	0.066986	-0.071716	-0.004578	-0.098572	-0.034332	0.17716	-0.007019	-0.03006	-0.2005	-0.029449	-0.065613	-0.018463	0.39002	0.29114	-0.078735	-0.26672	0.000458	-1.9325	-0.014191	0.34347	0.3035	-0.000916	-0.013123
39.999	-0.008545	-0.55969	0.13947	0.014496	-0.006409	0.02121	0.19363	0.02594	0.073547	0.067139	-0.008698	0.008698	-0.11749	-0.002441	-0.083008	-0.010986	-0.026245	-0.14221	-0.28503	0.077209	-0.16907	0.011444	0.25559	-0.037689	-0.052948	-0.001831	-1.3417	-0.008698	0.18784	0.36606	0.001221	-0.02121
40	-0.007019	-0.53757	0.14282	-0.014648	0.000763	0.023499	0.36087	0.026245	0.066071	0.1062	0.13458	-0.001221	-0.18662	-0.029449	0.26764	-0.009918	-0.078583	-0.16251	-0.20111	0.26169	0.084991	-0.2536	0.20996	0.10269	0.15121	0.00473	-0.32577	-0.008392	0.12482	0.30472	-0.000458	-0.010529
40.001	-0.010529	-0.62225	0.16068	-0.021667	0.003967	0.009003	0.41794	0.031738	0.075378	0.1236	0.1796	-0.007629	-0.21286	0.023804	0.15427	-0.013885	-0.031433	-0.25513	-0.40375	0.30624	0.11826	-0.2327	0.44098	0.10086	0.024109	-0.007324	0.14175	-0.010529	0.05722	0.21973	0.00351	-0.014038
40.002	-0.005646	-0.63583	0.19302	-0.009766	0.001678	0.015411	0.44113	0.03006	0.078735	0.10986	0.18219	0.009613	-0.18372	0.070038	0.40832	-0.00061	-0.00824	-0.28534	0.039825	0.24048	0.15182	-0.18417	0.39688	0.01297	-0.022736	-0.010376	0.33585	-0.00946	0.015869	0.20477	-0.00061	-0.009308
40.003	-0.000916	-0.64438	0.20828	0.002136	0.010376	-0.012512	0.41885	0.022888	0.096741	0.097046	0.20981	0.005188	-0.14877	-0.011292	0.16647	-0.020142	-0.014954	-0.24078	-0.29846	0.21561	0.046997	-0.14053	0.20584	0.032959	-0.047913	-0.010071	0.46234	-0.004272	-0.043335	0.21713	0.000153	-0.014038
40.004	0.007324	-0.62637	0.24643	-0.005188	0.004272	-0.005035	0.45563	0.008087	0.1181	0.0737	0.058289	0.014038	-0.093536	-0.066376	0.46081	-0.003052	-0.026703	-0.27741	-0.63324	0.15274	-0.066681	-0.27634	0.31326	0.18646	-0.019379	-0.000305	0.18402	-0.00946	-0.068207	0.2243	-0.002136	-0.009766
40.005	-0.000763	-0.54672	0.24643	-0.010681	0.007782	-0.005646	0.65063	0.047302	0.13718	0.080261	-0.28976	-0.004425	-0.058289	-0.018005	-0.13367	-0.008545	-0.020294	-0.31952	-0.49805	0.112	0.005035	-0.52109	0.40832	0.16525	0.014648	-0.005341	0.026703	-0.013123	-0.098114	0.13153	-0.001678	-0.006256
40.006	0.001526	-0.50247	0.21729	-0.012512	0.009155	-0.014496	0.77423	-0.015717	0.15045	0.049744	-0.2359	0.010681	-0.033264	0.05249	0.22598	0.00061	-0.031128	-0.29984	-0.16129	0.057068	0.00061	-0.63522	0.44968	-0.000458	-0.008545	-0.004578	-0.20218	-0.007019	-0.15549	-0.03479	-0.001373	-0.011597
40.007	-0.004578	-0.44311	0.20966	0.001221	0.009155	-0.019531	0.86227	0.00061	0.1268	0.054016	-0.013733	0.009613	-0.062256	0.065613	-0.000305	-0.012512	-0.010376	-0.36453	-0.47028	0.01297	-0.05722	-0.49652	0.58121	-0.046997	-0.036316	-0.017548	-0.48309	-0.01297	-0.27695	-0.009766	-0.001068	-0.002594
40.008	-0.000305	-0.34134	0.23102	0.000153	0.008392	-0.031433	0.94132	0.006104	0.10056	0.061951	0.066071	-0.002136	-0.090332	0.083313	0.19638	-0.001984	-0.007629	-0.32577	-0.86411	-0.036163	-0.13931	-0.31082	0.52628	-0.080719	-0.11597	-0.026245	-0.16068	-0.019073	-0.36453	-0.016937	-0.001678	-0.01297
40.009	-0.003967	-0.23514	0.23422	0.002441	0.01358	-0.02121	0.91415	0.013428	0.074005	0.066528	-0.14038	0.007172	-0.071716	0.089111	0.61783	-0.005951	-0.03418	-0.327	-1.1424	-0.034027	-0.09613	-0.18494	0.3447	-0.033722	-0.24582	-0.01709	0.31632	-0.014801	-0.54153	-0.10574	-0.007935	-0.008698
40.01	0.005035	-0.12268	0.26535	0.004578	0.014954	-0.050507	1.0439	-0.013275	0.054779	0.070038	-0.2832	0.004883	-0.11643	0.074615	-0.076447	-0.00061	-0.026245	-0.30655	-0.47424	-0.16586	-0.075378	-0.2211	0.17303	-0.073547	-0.20325	-0.02594	1.0361	0.049896	-0.54565	-0.27298	-0.00412	-0.011139
40.011	0.004425	-0.025635	0.24826	-0.021667	0.015717	-0.007782	1.0837	0.015869	0.043182	0.072327	-0.20615	-0.003204	-0.13534	0.088043	-0.62958	-0.000763	-0.016632	-0.36209	-0.095367	-0.13412	-0.081635	-0.177	0.039063	0.068665	0.039215	-0.011139	1.7622	0.024567	-0.25269	-0.45975	-0.001221	-0.006714
40.012	0.001526	0.075836	0.21454	-0.00351	0.010376	-0.001373	0.89325	0.025787	0.010376	0.058746	-0.026703	0.002441	-0.12634	0.10498	-0.63599	0.000916	0.003967	-0.39642	-0.63431	-0.010529	-0.083313	-0.22461	0.15533	0.30991	0.15243	-0.001831	1.4038	0.007935	0.13947	-0.50766	-0.000916	0.003815
40.013	0.005646	0.18219	0.22705	-0.013885	0.003204	0.006714	0.60532	0.014496	-0.024414	0.053711	-0.005188	-0.006256	-0.075073	0.071106	-0.63141	-0.004578	0.024261	-0.36102	-0.2945	-0.0354	-0.087128	-0.029602	0.20599	0.21042	0.22736	-0.006409	0.18402	-0.004272	0.21927	-0.53467	0.000916	0.003204
40.014	-0.000153	0.30029	0.25757	-0.006409	0.011139	-0.003662	0.3714	0.027313	-0.054169	0.071869	0.088806	0.005493	-0.081635	-0.002747	-0.33814	0.000153	0.013123	-0.29556	0.020599	0.033417	-0.061646	-0.015411	-0.027008	0.062561	0.45959	0.010376	-1.0503	-0.001831	0.31967	-0.4158	0.005035	-0.003052
40.015	0.006561	0.39642	0.20828	0.001373	0.004578	-0.000763	0.099335	0.020752	-0.057526	0.082092	0.038757	0.011139	-0.085297	-0.027924	0.002594	0.002747	-0.007019	-0.3215	-0.17349	0.11871	-0.039368	-0.15137	-0.17761	-0.042572	0.39139	0.019073	-1.1337	-0.004578	0.26474	-0.16113	0.000916	-0.007629
40.016	0.002441	0.47592	0.14694	-0.014496	0.012207	-0.004578	-0.061798	0.006866	-0.043945	0.070038	-0.05188	-0.00351	-0.064545	0.014954	0.16815	0.007629	-0.002899	-0.35095	-0.14191	0.039978	-0.014801	-0.22553	0.024872	0.040894	0.32638	0.01358	-0.89111	-0.00824	-0.10468	0.059052	-0.002136	-0.010071
40.017	0.00473	0.58487	0.12955	-0.022278	-0.001678	-0.003204	-0.12451	0.012054	-0.00351	0.070953	-0.04776	0.005188	-0.061188	0.11627	0.23285	0.011444	0.028076	-0.36514	0.062408	-0.14053	-0.06134	-0.29388	0.19592	0.079956	0.12726	0.014648	-0.72159	-0.009155	-0.22751	0.12024	-0.003052	-0.009155
40.018	0.005798	0.68008	0.15518	-0.023956	0.007324	0.005341	-0.20493	0.001373	-0.003662	0.059204	0.067291	-0.003052	-0.059204	0.13168	0.13016	0.020905	0.03418	-0.3566	0.30899	-0.087128	-0.21164	-0.25223	-0.24048	0.059509	0.034332	0.012054	-0.14008	-0.001984	-0.036926	-0.030365	-0.001526	-0.007019
40.019	0.012207	0.75394	0.15778	-0.017853	0.019836	-0.021973	-0.28854	-0.002441	-0.005188	0.063782	0.14008	-0.008087	-0.062103	0.10376	-0.014496	0.004578	0.039673	-0.34637	0.29221	-0.046387	-0.37705	-0.20401	-0.43228	0.045471	-0.11887	0.013733	0.20737	-0.002289	0.079498	-0.1088	-0.001526	-0.000153
40.02	0.009613	0.81268	0.1326	-0.009155	0.006256	-0.003815	-0.27054	-0.000916	-0.001373	0.021362	0.053711	-0.00412	-0.097656	0.066223	0.005188	0.004883	0.021362	-0.35904	0.078888	-0.021667	-0.3418	-0.20752	-0.34424	0.011902	-0.53879	0.022278	0.057526	-0.000153	0.24445	-0.25192	0.000153	0.004272
40.021	0.011292	0.88669	0.10452	-0.002441	0.006866	-0.010681	-0.15243	0.000305	-0.013275	0.093994	-0.058289	-0.001831	-0.089722	0.006256	0.15396	0.011292	0.014038	-0.44968	0.43869	0.005646	-0.071106	-0.20798	-0.17014	0.040588	-0.49194	0.021515	0.17532	-0.003357	0.19089	-0.07782	0.001221	0.004578
40.022	0.00885	0.95169	0.077972	0.026398	0.009613	0.005035	0.050812	-0.002289	-0.046844	0.042267	-0.21179	0.000153	-0.00946	-0.011444	1.0979	0.012512	-0.018463	-0.43686	0.51483	0.027924	0.25864	-0.22888	-0.042267	0.35584	-0.090485	0.005646	-0.25574	-0.005798	0.037079	0.24735	-0.000458	0.000153
40.023	0.015106	1.0237	0.060425	-0.001526	0.013733	-0.010986	0.18036	-0.009613	-0.068054	0.052643	-0.1648	-0.001373	-0.070801	0.044403	-0.032959	0.015411	0.010071	-0.47913	0.38742	-0.018005	0.17838	-0.22614	0.18509	0.1741	-0.14389	0.000916	-0.79102	-0.005493	0.015869	0.40619	-0.002899	0.001373
40.024	0.01236	1.1235	0.03418	-0.00946	0.007172	-0.023041	0.14526	-0.018158	-0.072937	0.067902	0.046997	-0.011444	-0.11032	0.050659	0.055084	0.010376	0.014038	-0.40329	0.082245	-0.039063	0.10223	-0.18158	0.24735	0.036316	-0.13229	0.000916	-0.26581	-0.007019	-0.030823	0.45242	-0.001831	0.001984
40.025	0.011749	1.1575	0.014954	-0.013733	0.016174	-0.013885	0.22263	-0.02182	-0.065613	0.019073	0.19745	0.004578	0.014801	0.066223	-0.11261	0.016327	0.019531	-0.36896	-0.37857	-0.050964	-0.017548	-0.1471	0.16846	-0.020447	-0.046539	0.00412	0.098419	0.006104	-0.011292	0.38422	-0.004272	-0.001526
40.026	0.014801	1.1459	0.006409	-0.014038	0.00473	-0.02533	0.21912	-0.027161	-0.074158	0.004578	0.1973	0.001068	0.037994	0.085907	0.089417	0.02243	0.072784	-0.50964	-0.27115	-0.064087	-0.007782	-0.22842	0.29098	-0.11643	-0.006104	-0.001678	0.18173	-0.006104	-0.11185	0.21606	-0.001068	0.001373
40.027	0.01709	1.1453	-0.025024	0.000153	0.005646	-0.036774	0.15579	-0.0383	-0.10864	0.010986	0.062866	-0.005798	-0.036926	0.1268	-0.23972	0.020752	0.084534	-0.63248	-0.63309	0.032196	-0.27329	-0.19913	0.45013	-0.01358	0.008545	-0.013275	0.43671	-0.011292	-0.19272	0.23315	0.001526	-0.000458
